<?xml version="1.0" standalone="no"?>
<!DOCTYPE svg PUBLIC "-//W3C//DTD SVG 20010904//EN"
 "http://www.w3.org/TR/2001/REC-SVG-20010904/DTD/svg10.dtd">
<svg version="1.0" xmlns="http://www.w3.org/2000/svg"
 width="700.000000pt" height="700.000000pt" viewBox="0 0 700.000000 700.000000"
 preserveAspectRatio="xMidYMid meet">
<metadata>
Created by potrace 1.14, written by Peter Selinger 2001-2017
</metadata>
<g transform="translate(0.000000,700.000000) scale(0.100000,-0.100000)"
fill="#000000" stroke="none">
<path d="M83 5549 c-17 -5 -43 -23 -57 -40 l-26 -31 0 -1965 c0 -2158 -4
-2008 59 -2046 27 -16 243 -17 3441 -17 3198 0 3414 1 3441 17 63 38 59 -112
59 2047 l0 1966 -27 30 c-17 19 -44 35 -68 40 -53 13 -6779 11 -6822 -1z
m2262 -1455 c36 -17 60 -47 70 -86 6 -25 6 -25 -82 -31 -397 -27 -746 -320
-855 -718 -20 -72 -23 -107 -23 -244 1 -171 10 -223 62 -355 132 -329 438
-561 796 -602 56 -6 103 -12 105 -14 9 -6 -30 -74 -53 -92 -28 -22 -29 -22
-574 -22 -607 0 -603 0 -741 67 -103 50 -211 159 -263 264 -65 133 -67 150
-67 760 0 507 1 551 19 621 56 219 218 386 426 442 91 24 76 23 628 25 455 1
523 -1 552 -15z m3505 -13 c86 -31 125 -51 189 -100 108 -81 186 -200 222
-339 18 -70 19 -114 19 -621 0 -610 -2 -627 -67 -760 -52 -105 -160 -214 -263
-264 -138 -67 -134 -67 -741 -67 -545 0 -546 0 -574 22 -22 17 -55 72 -55 91
0 2 35 7 78 11 383 34 703 275 837 631 55 146 73 371 41 520 -64 299 -254 545
-521 675 -124 61 -223 89 -342 97 -58 4 -93 10 -93 17 0 27 39 81 71 98 32 18
63 19 584 15 546 -3 550 -3 615 -26z m-1502 -1223 c-3 -504 -3 -514 -25 -553
-28 -52 -68 -89 -123 -114 -44 -20 -62 -21 -700 -21 -638 0 -656 1 -700 21
-55 25 -95 62 -123 114 -22 39 -22 49 -25 553 l-3 512 851 0 851 0 -3 -512z"/>
<path d="M3084 3124 c-40 -19 -64 -62 -64 -114 0 -34 6 -48 34 -76 l34 -34
412 0 412 0 34 34 c28 28 34 42 34 76 0 52 -25 95 -66 115 -47 22 -784 22
-830 -1z"/>
<path d="M3094 2766 c-100 -44 -99 -180 2 -222 48 -20 760 -20 808 0 102 43
102 179 0 222 -48 20 -764 20 -810 0z"/>
</g>
</svg>
